<?xml version="1.0" encoding="UTF-8"?>
<!DOCTYPE svg PUBLIC "-//W3C//DTD SVG 1.1//EN" "http://www.w3.org/Graphics/SVG/1.1/DTD/svg11.dtd">
<svg xmlns="http://www.w3.org/2000/svg" xmlns:xlink="http://www.w3.org/1999/xlink" version="1.1" width="793px" height="848px" viewBox="-0.5 -0.5 793 848" animation="{&quot;scriptArr&quot;:[],&quot;cellIdArr&quot;:[]}" style="background-color: rgb(255, 255, 255);"><defs><style type="text/css">ul { margin-top: 0px; margin-bottom: 10px; }&#xa;ol { margin-top: 0px; margin-bottom: 10px; }&#xa;.h1, .h2, .h3, .h4, .h5, .h6, h1, h2, h3, h4, h5, h6 { margin-bottom: .5rem; font-weight: 500; line-height: 1.2; }&#xa;h1, h2, h3, h4, h5, h6 { margin-top: 0; margin-bottom: .5rem; }&#xa;.h1, h1 { font-size: 2.5rem; }&#xa;h2 { font-size: 1.5em; font-weight: bold; }&#xa;h3 { font-size: 1.17em; font-weight: bold; }&#xa;.h4, h4 { font-size: 1.5rem; }&#xa;.h5, h5 { font-size: 1.25rem; }&#xa;.h6, h6 { font-size: 1rem; }&#xa;p { margin-top: 0; margin-bottom: 1rem; }&#xa;a { color: #007bff; }&#xa;ul { margin-top: 0px; margin-bottom: 10px; }&#xa;ol { margin-top: 0px; margin-bottom: 10px; }&#xa;.h1, .h2, .h3, .h4, .h5, .h6, h1, h2, h3, h4, h5, h6 { margin-bottom: .5rem; font-weight: 500; line-height: 1.2; }&#xa;h1, h2, h3, h4, h5, h6 { margin-top: 0; margin-bottom: .5rem; }&#xa;.h1, h1 { font-size: 2.5rem; }&#xa;h2 { font-size: 1.5em; font-weight: bold; }&#xa;h3 { font-size: 1.17em; font-weight: bold; }&#xa;.h4, h4 { font-size: 1.5rem; }&#xa;.h5, h5 { font-size: 1.25rem; }&#xa;.h6, h6 { font-size: 1rem; }&#xa;p { margin-top: 0; margin-bottom: 1rem; }&#xa;a { color: #007bff; }&#xa;ul { margin-top: 0px; margin-bottom: 10px; }&#xa;ol { margin-top: 0px; margin-bottom: 10px; }&#xa;.h1, .h2, .h3, .h4, .h5, .h6, h1, h2, h3, h4, h5, h6 { margin-bottom: .5rem; font-weight: 500; line-height: 1.2; }&#xa;h1, h2, h3, h4, h5, h6 { margin-top: 0; margin-bottom: .5rem; }&#xa;.h1, h1 { font-size: 2.5rem; }&#xa;h2 { font-size: 1.5em; font-weight: bold; }&#xa;h3 { font-size: 1.17em; font-weight: bold; }&#xa;.h4, h4 { font-size: 1.5rem; }&#xa;.h5, h5 { font-size: 1.25rem; }&#xa;.h6, h6 { font-size: 1rem; }&#xa;p { margin-top: 0; margin-bottom: 1rem; }&#xa;a { color: #007bff; }&#xa;</style><style type="text/css">@import url(https://fonts.googleapis.com/css2?family=Open+Sans:ital,wght@0,400;0,700;1,400;1,700&amp;display=swap);&#xa;@import url(https://fonts.googleapis.com/css2?family=Open+Sans:ital,wght@0,400;0,700;1,400;1,700&amp;display=swap);&#xa;</style></defs><g><g shape-node=""><rect cell-id="2" x="36" y="71" width="211" height="62.75" rx="10" ry="10" fill="#fff2cc" stroke="#000000" pointer-events="all"/><rect cell-id="2" x="36" y="71" width="211" height="62.75" rx="10" ry="10" fill="none" stroke="#000000" pointer-events="all"/><path cell-id="2" d="M 36 84.22 L 247 84.22" fill="none" stroke="#000000" stroke-miterlimit="10" pointer-events="all"/></g><g shape-node=""><g cell-id="2" fill="#000000" font-family="Helvetica" text-anchor="middle" font-size="12px"><text cell-id="2" x="141" y="81.5">Genere</text></g></g><g shape-node=""><rect cell-id="93YkcPVXiq9vAvVKfBQz-2" x="36" y="89.22" width="211" height="16" fill="none" stroke="none" pointer-events="all"/></g><g shape-node=""><g cell-id="93YkcPVXiq9vAvVKfBQz-2" fill="#000000" font-family="Helvetica" font-weight="bold" font-size="12px"><text cell-id="93YkcPVXiq9vAvVKfBQz-2" x="42.5" y="101.72">ID : int</text></g></g><g shape-node=""><rect cell-id="93YkcPVXiq9vAvVKfBQz-3" x="36" y="105.22" width="211" height="16" fill="none" stroke="none" pointer-events="all"/></g><g shape-node=""><g cell-id="93YkcPVXiq9vAvVKfBQz-3" fill="#000000" font-family="Helvetica" font-size="12px"><text cell-id="93YkcPVXiq9vAvVKfBQz-3" x="42.5" y="117.72">Name : varchar(25)</text></g></g><g shape-node=""><rect cell-id="6" x="318" y="0" width="180" height="71" rx="10" ry="10" fill="#d4e1f5" stroke="#000000" pointer-events="all"/><rect cell-id="6" x="318" y="0" width="180" height="71" rx="10" ry="10" fill="none" stroke="#000000" pointer-events="all"/><path cell-id="6" d="M 318 13.22 L 498 13.22" fill="none" stroke="#000000" stroke-miterlimit="10" pointer-events="all"/></g><g shape-node=""><g cell-id="6" fill="#000000" font-family="Helvetica" text-anchor="middle" font-size="12px"><text cell-id="6" x="407.5" y="10.5">Inventory</text></g></g><g shape-node=""><rect cell-id="93YkcPVXiq9vAvVKfBQz-6" x="318" y="18.22" width="180" height="16" fill="none" stroke="none" pointer-events="all"/></g><g shape-node=""><g cell-id="93YkcPVXiq9vAvVKfBQz-6" fill="#000000" font-family="Helvetica" font-weight="bold" font-size="12px"><text cell-id="93YkcPVXiq9vAvVKfBQz-6" x="324.5" y="30.72">ID : int</text></g></g><g shape-node=""><rect cell-id="93YkcPVXiq9vAvVKfBQz-7" x="318" y="34.22" width="180" height="16" fill="none" stroke="none" pointer-events="all"/></g><g shape-node=""><g cell-id="93YkcPVXiq9vAvVKfBQz-7" fill="#000000" font-family="Helvetica" font-style="italic" font-size="12px"><text cell-id="93YkcPVXiq9vAvVKfBQz-7" x="324.5" y="46.72">FilmID : int</text></g></g><g shape-node=""><rect cell-id="10" x="673" y="254.19" width="119" height="100.31" rx="10" ry="10" fill="#d5e8d4" stroke="#000000" pointer-events="all"/><rect cell-id="10" x="673" y="254.19" width="119" height="100.31" rx="10" ry="10" fill="none" stroke="#000000" pointer-events="all"/><path cell-id="10" d="M 673 267.41 L 792 267.41" fill="none" stroke="#000000" stroke-miterlimit="10" pointer-events="all"/></g><g shape-node=""><g cell-id="10" fill="#000000" font-family="Helvetica" text-anchor="middle" font-size="12px"><text cell-id="10" x="732" y="264.69">Customer</text></g></g><g shape-node=""><rect cell-id="93YkcPVXiq9vAvVKfBQz-10" x="673" y="272.41" width="119" height="16" fill="none" stroke="none" pointer-events="all"/></g><g shape-node=""><g cell-id="93YkcPVXiq9vAvVKfBQz-10" fill="#000000" font-family="Helvetica" font-weight="bold" font-size="12px"><text cell-id="93YkcPVXiq9vAvVKfBQz-10" x="679.5" y="284.91">ID : int</text></g></g><g shape-node=""><rect cell-id="93YkcPVXiq9vAvVKfBQz-13" x="673" y="288.41" width="119" height="16" fill="none" stroke="none" pointer-events="all"/></g><g shape-node=""><g cell-id="93YkcPVXiq9vAvVKfBQz-13" fill="#000000" font-family="Helvetica" font-size="12px"><text cell-id="93YkcPVXiq9vAvVKfBQz-13" x="679.5" y="300.91">Name : varchar(255)</text></g></g><g shape-node=""><rect cell-id="20" x="36" y="212.75" width="211" height="56" rx="10" ry="10" fill="#fff2cc" stroke="#000000" pointer-events="all"/><rect cell-id="20" x="36" y="212.75" width="211" height="56" rx="10" ry="10" fill="none" stroke="#000000" pointer-events="all"/><path cell-id="20" d="M 36 225.97 L 247 225.97" fill="none" stroke="#000000" stroke-miterlimit="10" pointer-events="all"/></g><g shape-node=""><g cell-id="20" fill="#000000" font-family="Helvetica" text-anchor="middle" font-size="12px"><text cell-id="20" x="141" y="223.25">Film_Genere</text></g></g><g shape-node=""><rect cell-id="93YkcPVXiq9vAvVKfBQz-20" x="36" y="230.97" width="211" height="16" fill="none" stroke="none" pointer-events="all"/></g><g shape-node=""><g cell-id="93YkcPVXiq9vAvVKfBQz-20" fill="#000000" font-family="Helvetica" font-style="italic" font-size="12px"><text cell-id="93YkcPVXiq9vAvVKfBQz-20" x="42.5" y="243.47">FilmID : int</text></g></g><g shape-node=""><rect cell-id="93YkcPVXiq9vAvVKfBQz-21" x="36" y="246.97" width="211" height="16" fill="none" stroke="none" pointer-events="all"/></g><g shape-node=""><g cell-id="93YkcPVXiq9vAvVKfBQz-21" fill="#000000" font-family="Helvetica" font-style="italic" font-size="12px"><text cell-id="93YkcPVXiq9vAvVKfBQz-21" x="42.5" y="259.47">GenereID : int</text></g></g><g shape-node=""><rect cell-id="24" x="318" y="133.75" width="180" height="135" rx="10" ry="10" fill="#d4e1f5" stroke="#000000" pointer-events="all"/><rect cell-id="24" x="318" y="133.75" width="180" height="135" rx="10" ry="10" fill="none" stroke="#000000" pointer-events="all"/><path cell-id="24" d="M 318 146.97 L 498 146.97" fill="none" stroke="#000000" stroke-miterlimit="10" pointer-events="all"/></g><g shape-node=""><g cell-id="24" fill="#000000" font-family="Helvetica" text-anchor="middle" font-size="12px"><text cell-id="24" x="407.5" y="144.25">Buy/Rent</text></g></g><g shape-node=""><rect cell-id="93YkcPVXiq9vAvVKfBQz-24" x="318" y="151.97" width="180" height="16" fill="none" stroke="none" pointer-events="all"/></g><g shape-node=""><g cell-id="93YkcPVXiq9vAvVKfBQz-24" fill="#000000" font-family="Helvetica" font-weight="bold" font-size="12px"><text cell-id="93YkcPVXiq9vAvVKfBQz-24" x="324.5" y="164.47">ID : int</text></g></g><g shape-node=""><rect cell-id="93YkcPVXiq9vAvVKfBQz-26" x="318" y="167.97" width="180" height="16" fill="none" stroke="none" pointer-events="all"/></g><g shape-node=""><g cell-id="93YkcPVXiq9vAvVKfBQz-26" fill="#000000" font-family="Helvetica" font-style="italic" font-size="12px"><text cell-id="93YkcPVXiq9vAvVKfBQz-26" x="324.5" y="180.47">CustomerID : int</text></g></g><g shape-node=""><rect cell-id="93YkcPVXiq9vAvVKfBQz-27" x="318" y="183.97" width="180" height="16" fill="none" stroke="none" pointer-events="all"/></g><g shape-node=""><g cell-id="93YkcPVXiq9vAvVKfBQz-27" fill="#000000" font-family="Helvetica" font-style="italic" font-size="12px"><text cell-id="93YkcPVXiq9vAvVKfBQz-27" x="324.5" y="196.47">InventoryID : int</text></g></g><g shape-node=""><rect cell-id="93YkcPVXiq9vAvVKfBQz-28" x="318" y="199.97" width="180" height="16" fill="none" stroke="none" pointer-events="all"/></g><g shape-node=""><g cell-id="93YkcPVXiq9vAvVKfBQz-28" fill="#000000" font-family="Helvetica" font-size="12px"><text cell-id="93YkcPVXiq9vAvVKfBQz-28" x="324.5" y="212.47">Rental_Date : datetime</text></g></g><g shape-node=""><rect cell-id="93YkcPVXiq9vAvVKfBQz-29" x="318" y="215.97" width="180" height="16" fill="none" stroke="none" pointer-events="all"/></g><g shape-node=""><g cell-id="93YkcPVXiq9vAvVKfBQz-29" fill="#000000" font-family="Helvetica" font-size="12px"><text cell-id="93YkcPVXiq9vAvVKfBQz-29" x="324.5" y="228.47">Return_Date : datetime</text></g></g><g shape-node=""><rect cell-id="93YkcPVXiq9vAvVKfBQz-30" x="318" y="231.97" width="180" height="16" fill="none" stroke="none" pointer-events="all"/></g><g shape-node=""><g cell-id="93YkcPVXiq9vAvVKfBQz-30" fill="#000000" font-family="Helvetica" font-size="12px"><text cell-id="93YkcPVXiq9vAvVKfBQz-30" x="324.5" y="244.47">Actual_Return_date : datetime</text></g></g><g shape-node=""><rect cell-id="null" x="318" y="247.97" width="180" height="16" fill="none" stroke="none" pointer-events="all"/></g><g shape-node=""><g cell-id="null" fill="#000000" font-family="Helvetica" font-size="12px"><text cell-id="null" x="324.5" y="260.47">Buy/Rent: Boolean</text></g></g><g shape-node=""><rect cell-id="41" x="36" y="354.5" width="211" height="231" rx="10" ry="10" fill="#fff2cc" stroke="#000000" pointer-events="all"/><rect cell-id="41" x="36" y="354.5" width="211" height="231" rx="10" ry="10" fill="none" stroke="#000000" pointer-events="all"/><path cell-id="41" d="M 36 367.72 L 247 367.72" fill="none" stroke="#000000" stroke-miterlimit="10" pointer-events="all"/></g><g shape-node=""><g cell-id="41" fill="#000000" font-family="Helvetica" text-anchor="middle" font-size="12px"><text cell-id="41" x="141" y="365">Film</text></g></g><g shape-node=""><rect cell-id="93YkcPVXiq9vAvVKfBQz-41" x="36" y="372.72" width="211" height="16" fill="none" stroke="none" pointer-events="all"/></g><g shape-node=""><g cell-id="93YkcPVXiq9vAvVKfBQz-41" fill="#000000" font-family="Helvetica" font-weight="bold" font-size="12px"><text cell-id="93YkcPVXiq9vAvVKfBQz-41" x="42.5" y="385.22">ID : int</text></g></g><g shape-node=""><rect cell-id="93YkcPVXiq9vAvVKfBQz-42" x="36" y="388.72" width="211" height="16" fill="none" stroke="none" pointer-events="all"/></g><g shape-node=""><g cell-id="93YkcPVXiq9vAvVKfBQz-42" fill="#000000" font-family="Helvetica" font-size="12px"><text cell-id="93YkcPVXiq9vAvVKfBQz-42" x="42.5" y="401.22">Director: varchar(255)</text></g></g><g shape-node=""><rect cell-id="93YkcPVXiq9vAvVKfBQz-43" x="36" y="404.72" width="211" height="16" fill="none" stroke="none" pointer-events="all"/></g><g shape-node=""><g cell-id="93YkcPVXiq9vAvVKfBQz-43" fill="#000000" font-family="Helvetica" font-size="12px"><text cell-id="93YkcPVXiq9vAvVKfBQz-43" x="42.5" y="417.22">Title : varchar(255)</text></g></g><g shape-node=""><rect cell-id="93YkcPVXiq9vAvVKfBQz-45" x="36" y="420.72" width="211" height="16" fill="none" stroke="none" pointer-events="all"/></g><g shape-node=""><g cell-id="93YkcPVXiq9vAvVKfBQz-45" fill="#000000" font-family="Helvetica" font-size="12px"><text cell-id="93YkcPVXiq9vAvVKfBQz-45" x="42.5" y="433.22">Release_Date : datetime</text></g></g><g shape-node=""><rect cell-id="93YkcPVXiq9vAvVKfBQz-46" x="36" y="436.72" width="211" height="16" fill="none" stroke="none" pointer-events="all"/></g><g shape-node=""><g cell-id="93YkcPVXiq9vAvVKfBQz-46" fill="#000000" font-family="Helvetica" font-size="12px"><text cell-id="93YkcPVXiq9vAvVKfBQz-46" x="42.5" y="449.22">Rental_Duration : int</text></g></g><g shape-node=""><rect cell-id="93YkcPVXiq9vAvVKfBQz-47" x="36" y="452.72" width="211" height="16" fill="none" stroke="none" pointer-events="all"/></g><g shape-node=""><g cell-id="93YkcPVXiq9vAvVKfBQz-47" fill="#000000" font-family="Helvetica" font-size="12px"><text cell-id="93YkcPVXiq9vAvVKfBQz-47" x="42.5" y="465.22">Buy_cost : numeric(19, 0)</text></g></g><g shape-node=""><rect cell-id="93YkcPVXiq9vAvVKfBQz-48" x="36" y="484.72" width="211" height="16" fill="none" stroke="none" pointer-events="all"/></g><g shape-node=""><g cell-id="93YkcPVXiq9vAvVKfBQz-48" fill="#000000" font-family="Helvetica" font-size="12px"><text cell-id="93YkcPVXiq9vAvVKfBQz-48" x="42.5" y="497.22">Length : int</text></g></g><g shape-node=""><rect cell-id="93YkcPVXiq9vAvVKfBQz-50" x="36" y="500.72" width="211" height="16" fill="none" stroke="none" pointer-events="all"/></g><g shape-node=""><g cell-id="93YkcPVXiq9vAvVKfBQz-50" fill="#000000" font-family="Helvetica" font-size="12px"><text cell-id="93YkcPVXiq9vAvVKfBQz-50" x="42.5" y="513.22">IMDB_Rating : int</text></g></g><g shape-node=""><rect cell-id="null" x="36" y="516.72" width="211" height="16" fill="none" stroke="none" pointer-events="all"/></g><g shape-node=""><g cell-id="null" fill="#000000" font-family="Helvetica" font-size="12px"><text cell-id="null" x="42.5" y="529.22">Genere:varchar(255)</text></g></g><g shape-node=""><rect cell-id="null" x="36" y="532.72" width="211" height="16" fill="none" stroke="none" pointer-events="all"/></g><g shape-node=""><g cell-id="null" fill="#000000" font-family="Helvetica" font-size="12px"><text cell-id="null" x="42.5" y="545.22">Lead_actor: varchar(255)</text></g></g><g shape-node=""><rect cell-id="null" x="36" y="548.72" width="211" height="16" fill="none" stroke="none" pointer-events="all"/></g><g shape-node=""><g cell-id="null" fill="#000000" font-family="Helvetica" font-size="12px"><text cell-id="null" x="42.5" y="561.22">Lead_actor_role: varchar(255)</text></g></g><g shape-node=""><rect cell-id="null" x="36" y="468.72" width="211" height="16" fill="none" stroke="none" pointer-events="all"/></g><g shape-node=""><g cell-id="null" fill="#000000" font-family="Helvetica" font-size="12px"><text cell-id="null" x="42.5" y="481.22">Rental_rate : numeric(19,0)</text></g></g><g shape-node=""><rect cell-id="55" x="318" y="331.5" width="200.37" height="133.35" rx="10" ry="10" fill="#d4e1f5" stroke="#000000" pointer-events="all"/><rect cell-id="55" x="318" y="331.5" width="200.37" height="133.35" rx="10" ry="10" fill="none" stroke="#000000" pointer-events="all"/><path cell-id="55" d="M 318 344.72 L 518.37 344.72" fill="none" stroke="#000000" stroke-miterlimit="10" pointer-events="all"/></g><g shape-node=""><g cell-id="55" fill="#000000" font-family="Helvetica" text-anchor="middle" font-size="12px"><text cell-id="55" x="417.69" y="342">Payment</text></g></g><g shape-node=""><rect cell-id="93YkcPVXiq9vAvVKfBQz-55" x="318" y="349.72" width="200.37" height="16" fill="none" stroke="none" pointer-events="all"/></g><g shape-node=""><g cell-id="93YkcPVXiq9vAvVKfBQz-55" fill="#000000" font-family="Helvetica" font-weight="bold" font-size="12px"><text cell-id="93YkcPVXiq9vAvVKfBQz-55" x="324.5" y="362.22">ID : int</text></g></g><g shape-node=""><rect cell-id="93YkcPVXiq9vAvVKfBQz-56" x="318" y="365.72" width="200.37" height="16" fill="none" stroke="none" pointer-events="all"/></g><g shape-node=""><g cell-id="93YkcPVXiq9vAvVKfBQz-56" fill="#000000" font-family="Helvetica" font-style="italic" font-size="12px"><text cell-id="93YkcPVXiq9vAvVKfBQz-56" x="324.5" y="378.22">RentalID : int</text></g></g><g shape-node=""><rect cell-id="93YkcPVXiq9vAvVKfBQz-57" x="318" y="381.72" width="200.37" height="16" fill="none" stroke="none" pointer-events="all"/></g><g shape-node=""><g cell-id="93YkcPVXiq9vAvVKfBQz-57" fill="#000000" font-family="Helvetica" font-style="italic" font-size="12px"><text cell-id="93YkcPVXiq9vAvVKfBQz-57" x="324.5" y="394.22">CustomerID : int</text></g></g><g shape-node=""><rect cell-id="93YkcPVXiq9vAvVKfBQz-58" x="318" y="397.72" width="200.37" height="16" fill="none" stroke="none" pointer-events="all"/></g><g shape-node=""><g cell-id="93YkcPVXiq9vAvVKfBQz-58" fill="#000000" font-family="Helvetica" font-size="12px"><text cell-id="93YkcPVXiq9vAvVKfBQz-58" x="324.5" y="410.22">Amount : numeric(19, 0)</text></g></g><g shape-node=""><rect cell-id="93YkcPVXiq9vAvVKfBQz-59" x="318" y="413.72" width="200.37" height="16" fill="none" stroke="none" pointer-events="all"/></g><g shape-node=""><g cell-id="93YkcPVXiq9vAvVKfBQz-59" fill="#000000" font-family="Helvetica" font-size="12px"><text cell-id="93YkcPVXiq9vAvVKfBQz-59" x="324.5" y="426.22">Payment_Date : datetime</text></g></g><g shape-node=""><rect cell-id="null" x="318" y="429.72" width="200.37" height="16" fill="none" stroke="none" pointer-events="all"/></g><g shape-node=""><g cell-id="null" fill="#000000" font-family="Helvetica" font-size="12px"><text cell-id="null" x="324.5" y="442.22">Security_deposit: numeric(19,0)</text></g></g><g shape-node=""><rect cell-id="null" x="318" y="445.72" width="200.37" height="16" fill="none" stroke="none" pointer-events="all"/></g><g shape-node=""><g cell-id="null" fill="#000000" font-family="Helvetica" font-size="12px"><text cell-id="null" x="324.5" y="458.22">Penalty: numeric(19,0)</text></g></g><g shape-node=""><rect cell-id="84" x="36" y="647" width="211" height="71" rx="10" ry="10" fill="#f8cecc" stroke="#000000" pointer-events="all"/><rect cell-id="84" x="36" y="647" width="211" height="71" rx="10" ry="10" fill="none" stroke="#000000" pointer-events="all"/><path cell-id="84" d="M 36 660.22 L 247 660.22" fill="none" stroke="#000000" stroke-miterlimit="10" pointer-events="all"/></g><g shape-node=""><g cell-id="84" fill="#000000" font-family="Helvetica" text-anchor="middle" font-size="12px"><text cell-id="84" x="141" y="657.5">Film_Actor</text></g></g><g shape-node=""><rect cell-id="93YkcPVXiq9vAvVKfBQz-84" x="36" y="665.22" width="211" height="16" fill="none" stroke="none" pointer-events="all"/></g><g shape-node=""><g cell-id="93YkcPVXiq9vAvVKfBQz-84" fill="#000000" font-family="Helvetica" font-style="italic" font-size="12px"><text cell-id="93YkcPVXiq9vAvVKfBQz-84" x="42.5" y="677.72">FilmID : int</text></g></g><g shape-node=""><rect cell-id="93YkcPVXiq9vAvVKfBQz-85" x="36" y="681.22" width="211" height="16" fill="none" stroke="none" pointer-events="all"/></g><g shape-node=""><g cell-id="93YkcPVXiq9vAvVKfBQz-85" fill="#000000" font-family="Helvetica" font-style="italic" font-size="12px"><text cell-id="93YkcPVXiq9vAvVKfBQz-85" x="42.5" y="693.72">ActorID : int</text></g></g><g shape-node=""><rect cell-id="null" x="36" y="697.22" width="211" height="16" fill="none" stroke="none" pointer-events="all"/></g><g shape-node=""><g cell-id="null" fill="#000000" font-family="Helvetica" font-size="12px"><text cell-id="null" x="42.5" y="709.72">Role_info: varchar(255)</text></g></g><g shape-node=""><rect cell-id="88" x="328.18" y="631.82" width="180" height="101.35" rx="10" ry="10" fill="#f8cecc" stroke="#000000" pointer-events="all"/><rect cell-id="88" x="328.18" y="631.82" width="180" height="101.35" rx="10" ry="10" fill="none" stroke="#000000" pointer-events="all"/><path cell-id="88" d="M 328.18 645.04 L 508.18 645.04" fill="none" stroke="#000000" stroke-miterlimit="10" pointer-events="all"/></g><g shape-node=""><g cell-id="88" fill="#000000" font-family="Helvetica" text-anchor="middle" font-size="12px"><text cell-id="88" x="417.68" y="642.32">Actor</text></g></g><g shape-node=""><rect cell-id="93YkcPVXiq9vAvVKfBQz-88" x="328.18" y="650.04" width="180" height="16" fill="none" stroke="none" pointer-events="all"/></g><g shape-node=""><g cell-id="93YkcPVXiq9vAvVKfBQz-88" fill="#000000" font-family="Helvetica" font-weight="bold" font-size="12px"><text cell-id="93YkcPVXiq9vAvVKfBQz-88" x="334.68" y="662.54">ID : int</text></g></g><g shape-node=""><rect cell-id="93YkcPVXiq9vAvVKfBQz-89" x="328.18" y="666.04" width="180" height="16" fill="none" stroke="none" pointer-events="all"/></g><g shape-node=""><g cell-id="93YkcPVXiq9vAvVKfBQz-89" fill="#000000" font-family="Helvetica" font-size="12px"><text cell-id="93YkcPVXiq9vAvVKfBQz-89" x="334.68" y="678.54">First_Name : varchar(255)</text></g></g><g shape-node=""><rect cell-id="93YkcPVXiq9vAvVKfBQz-90" x="328.18" y="682.04" width="180" height="16" fill="none" stroke="none" pointer-events="all"/></g><g shape-node=""><g cell-id="93YkcPVXiq9vAvVKfBQz-90" fill="#000000" font-family="Helvetica" font-size="12px"><text cell-id="93YkcPVXiq9vAvVKfBQz-90" x="334.68" y="694.54">Last_Name : varchar(255)</text></g></g><g shape-node=""><rect cell-id="null" x="328.18" y="698.04" width="180" height="16" fill="none" stroke="none" pointer-events="all"/></g><g shape-node=""><g cell-id="null" fill="#000000" font-family="Helvetica" font-size="12px"><text cell-id="null" x="334.68" y="710.54">Gender: varchar(255)</text></g></g><g shape-node=""><rect cell-id="null" x="328.18" y="714.04" width="180" height="16" fill="none" stroke="none" pointer-events="all"/></g><g shape-node=""><g cell-id="null" fill="#000000" font-family="Helvetica" font-size="12px"><text cell-id="null" x="334.68" y="726.54">Total_films</text></g></g><g shape-node=""><path cell-id="101" d="M 141.75 133.83 L 142 213" fill="none" stroke="#000000" stroke-miterlimit="10" stroke-dasharray="5" pointer-events="stroke"/><path cell-id="101" d="M 148.27 140.31 L 135.27 140.35" fill="none" stroke="#000000" stroke-miterlimit="10" pointer-events="all"/><ellipse cell-id="101" cx="141.94" cy="193.5" rx="5.5" ry="5.5" fill="#ffffff" stroke="#000000" pointer-events="all"/><path cell-id="101" d="M 148.5 212.98 L 141.96 200 L 135.5 213.02" fill="none" stroke="#000000" stroke-miterlimit="10" pointer-events="all"/></g><g shape-node=""><path cell-id="102" d="M 141.5 354.5 L 141.5 268.75" fill="none" stroke="#000000" stroke-miterlimit="10" stroke-dasharray="5" pointer-events="stroke"/><path cell-id="102" d="M 135 348 L 148 348" fill="none" stroke="#000000" stroke-miterlimit="10" pointer-events="all"/><ellipse cell-id="102" cx="141.5" cy="288.25" rx="5.5" ry="5.5" fill="#ffffff" stroke="#000000" pointer-events="all"/><path cell-id="102" d="M 135 268.75 L 141.5 281.75 L 148 268.75" fill="none" stroke="#000000" stroke-miterlimit="10" pointer-events="all"/></g><g shape-node=""><path cell-id="104" d="M 36 424 L 23 424 Q 13 424 13 414 L 13 46 Q 13 36 23 36 L 318 36" fill="none" stroke="#000000" stroke-miterlimit="10" stroke-dasharray="5" pointer-events="stroke"/><path cell-id="104" d="M 29.5 430.5 L 29.5 417.5" fill="none" stroke="#000000" stroke-miterlimit="10" pointer-events="all"/><ellipse cell-id="104" cx="298.5" cy="36" rx="5.5" ry="5.5" fill="#ffffff" stroke="#000000" pointer-events="all"/><path cell-id="104" d="M 318 29.5 L 305 36 L 318 42.5" fill="none" stroke="#000000" stroke-miterlimit="10" pointer-events="all"/></g><g shape-node=""><path cell-id="106" d="M 413.33 268.83 L 418.67 331.33" fill="none" stroke="#000000" stroke-miterlimit="10" stroke-dasharray="5" pointer-events="stroke"/><path cell-id="106" d="M 420.36 274.76 L 407.41 275.86" fill="none" stroke="#000000" stroke-miterlimit="10" pointer-events="all"/><ellipse cell-id="106" cx="417.01" cy="311.9" rx="5.5" ry="5.5" fill="#ffffff" stroke="#000000" pointer-events="all"/><path cell-id="106" d="M 425.14 330.78 L 417.56 318.38 L 412.19 331.89" fill="none" stroke="#000000" stroke-miterlimit="10" pointer-events="all"/></g><g shape-node=""><path cell-id="108" d="M 408 71 L 408 133.75" fill="none" stroke="#000000" stroke-miterlimit="10" stroke-dasharray="5" pointer-events="stroke"/><path cell-id="108" d="M 414.5 77.5 L 401.5 77.5" fill="none" stroke="#000000" stroke-miterlimit="10" pointer-events="all"/><ellipse cell-id="108" cx="408" cy="114.25" rx="5.5" ry="5.5" fill="#ffffff" stroke="#000000" pointer-events="all"/><path cell-id="108" d="M 414.5 133.75 L 408 120.75 L 401.5 133.75" fill="none" stroke="#000000" stroke-miterlimit="10" pointer-events="all"/></g><g shape-node=""><path cell-id="109" d="M 673 304.33 L 595.5 304.33 Q 585.5 304.33 585.5 294.33 L 585.5 113.83 Q 585.5 103.83 575.5 103.83 L 463.67 103.83 Q 453.67 103.83 453.67 113.83 L 453.67 133" fill="none" stroke="#000000" stroke-miterlimit="10" stroke-dasharray="5" pointer-events="stroke"/><path cell-id="109" d="M 666.5 310.83 L 666.5 297.83" fill="none" stroke="#000000" stroke-miterlimit="10" pointer-events="all"/><ellipse cell-id="109" cx="453.67" cy="113.5" rx="5.5" ry="5.5" fill="#ffffff" stroke="#000000" pointer-events="all"/><path cell-id="109" d="M 460.17 133 L 453.67 120 L 447.17 133" fill="none" stroke="#000000" stroke-miterlimit="10" pointer-events="all"/></g><g shape-node=""><path cell-id="113" d="M 328.18 682.5 L 247 682.5" fill="none" stroke="#000000" stroke-miterlimit="10" stroke-dasharray="5" pointer-events="stroke"/><path cell-id="113" d="M 321.68 689 L 321.68 676" fill="none" stroke="#000000" stroke-miterlimit="10" pointer-events="all"/><ellipse cell-id="113" cx="266.5" cy="682.5" rx="5.5" ry="5.5" fill="#ffffff" stroke="#000000" pointer-events="all"/><path cell-id="113" d="M 247 689 L 260 682.5 L 247 676" fill="none" stroke="#000000" stroke-miterlimit="10" pointer-events="all"/></g><g shape-node=""><path cell-id="114" d="M 36 462 L 23 462 Q 13 462 13 472 L 13 822 Q 13 832 23 832 L 131.5 832 Q 141.5 832 141.5 822 L 141.5 718" fill="none" stroke="#000000" stroke-miterlimit="10" stroke-dasharray="5" pointer-events="stroke"/><path cell-id="114" d="M 29.5 468.5 L 29.5 455.5" fill="none" stroke="#000000" stroke-miterlimit="10" pointer-events="all"/><ellipse cell-id="114" cx="141.5" cy="737.5" rx="5.5" ry="5.5" fill="#ffffff" stroke="#000000" pointer-events="all"/><path cell-id="114" d="M 135 718 L 141.5 731 L 148 718" fill="none" stroke="#000000" stroke-miterlimit="10" pointer-events="all"/></g><g shape-node=""><path cell-id="WLoni_qVG5OEuvx1Uarv-118" d="M 673 304.35 L 653 304.35 Q 643 304.35 635.9 311.39 L 555.76 390.95 Q 548.67 398 538.67 398 L 518.67 398" fill="none" stroke="#000000" stroke-miterlimit="10" stroke-dasharray="5" pointer-events="stroke"/><path cell-id="WLoni_qVG5OEuvx1Uarv-118" d="M 666.5 310.85 L 666.5 297.85" fill="none" stroke="#000000" stroke-miterlimit="10" pointer-events="all"/><ellipse cell-id="WLoni_qVG5OEuvx1Uarv-118" cx="538.17" cy="398" rx="5.5" ry="5.5" fill="#ffffff" stroke="#000000" pointer-events="all"/><path cell-id="WLoni_qVG5OEuvx1Uarv-118" d="M 518.67 404.5 L 531.67 398 L 518.67 391.5" fill="none" stroke="#000000" stroke-miterlimit="10" pointer-events="all"/></g><g shape-node=""><path cell-id="101" d="M 141.75 133.83 L 142 213" fill="none" stroke="#000000" stroke-miterlimit="10" stroke-dasharray="5" pointer-events="stroke"/><path cell-id="101" d="M 148.27 140.31 L 135.27 140.35" fill="none" stroke="#000000" stroke-miterlimit="10" pointer-events="all"/><ellipse cell-id="101" cx="141.94" cy="193.5" rx="5.5" ry="5.5" fill="#ffffff" stroke="#000000" pointer-events="all"/><path cell-id="101" d="M 148.5 212.98 L 141.96 200 L 135.5 213.02" fill="none" stroke="#000000" stroke-miterlimit="10" pointer-events="all"/></g><g shape-node=""><path cell-id="102" d="M 141.5 354.5 L 141.5 268.75" fill="none" stroke="#000000" stroke-miterlimit="10" stroke-dasharray="5" pointer-events="stroke"/><path cell-id="102" d="M 135 348 L 148 348" fill="none" stroke="#000000" stroke-miterlimit="10" pointer-events="all"/><ellipse cell-id="102" cx="141.5" cy="288.25" rx="5.5" ry="5.5" fill="#ffffff" stroke="#000000" pointer-events="all"/><path cell-id="102" d="M 135 268.75 L 141.5 281.75 L 148 268.75" fill="none" stroke="#000000" stroke-miterlimit="10" pointer-events="all"/></g><g shape-node=""><path cell-id="104" d="M 36 424 L 23 424 Q 13 424 13 414 L 13 46 Q 13 36 23 36 L 318 36" fill="none" stroke="#000000" stroke-miterlimit="10" stroke-dasharray="5" pointer-events="stroke"/><path cell-id="104" d="M 29.5 430.5 L 29.5 417.5" fill="none" stroke="#000000" stroke-miterlimit="10" pointer-events="all"/><ellipse cell-id="104" cx="298.5" cy="36" rx="5.5" ry="5.5" fill="#ffffff" stroke="#000000" pointer-events="all"/><path cell-id="104" d="M 318 29.5 L 305 36 L 318 42.5" fill="none" stroke="#000000" stroke-miterlimit="10" pointer-events="all"/></g><g shape-node=""><path cell-id="106" d="M 413.33 268.83 L 418.67 331.33" fill="none" stroke="#000000" stroke-miterlimit="10" stroke-dasharray="5" pointer-events="stroke"/><path cell-id="106" d="M 420.36 274.76 L 407.41 275.86" fill="none" stroke="#000000" stroke-miterlimit="10" pointer-events="all"/><ellipse cell-id="106" cx="417.01" cy="311.9" rx="5.5" ry="5.5" fill="#ffffff" stroke="#000000" pointer-events="all"/><path cell-id="106" d="M 425.14 330.78 L 417.56 318.38 L 412.19 331.89" fill="none" stroke="#000000" stroke-miterlimit="10" pointer-events="all"/></g><g shape-node=""><path cell-id="108" d="M 408 71 L 408 133.75" fill="none" stroke="#000000" stroke-miterlimit="10" stroke-dasharray="5" pointer-events="stroke"/><path cell-id="108" d="M 414.5 77.5 L 401.5 77.5" fill="none" stroke="#000000" stroke-miterlimit="10" pointer-events="all"/><ellipse cell-id="108" cx="408" cy="114.25" rx="5.5" ry="5.5" fill="#ffffff" stroke="#000000" pointer-events="all"/><path cell-id="108" d="M 414.5 133.75 L 408 120.75 L 401.5 133.75" fill="none" stroke="#000000" stroke-miterlimit="10" pointer-events="all"/></g><g shape-node=""><path cell-id="109" d="M 673 304.33 L 595.5 304.33 Q 585.5 304.33 585.5 294.33 L 585.5 113.83 Q 585.5 103.83 575.5 103.83 L 463.67 103.83 Q 453.67 103.83 453.67 113.83 L 453.67 133" fill="none" stroke="#000000" stroke-miterlimit="10" stroke-dasharray="5" pointer-events="stroke"/><path cell-id="109" d="M 666.5 310.83 L 666.5 297.83" fill="none" stroke="#000000" stroke-miterlimit="10" pointer-events="all"/><ellipse cell-id="109" cx="453.67" cy="113.5" rx="5.5" ry="5.5" fill="#ffffff" stroke="#000000" pointer-events="all"/><path cell-id="109" d="M 460.17 133 L 453.67 120 L 447.17 133" fill="none" stroke="#000000" stroke-miterlimit="10" pointer-events="all"/></g><g shape-node=""><path cell-id="113" d="M 328.18 682.5 L 247 682.5" fill="none" stroke="#000000" stroke-miterlimit="10" stroke-dasharray="5" pointer-events="stroke"/><path cell-id="113" d="M 321.68 689 L 321.68 676" fill="none" stroke="#000000" stroke-miterlimit="10" pointer-events="all"/><ellipse cell-id="113" cx="266.5" cy="682.5" rx="5.5" ry="5.5" fill="#ffffff" stroke="#000000" pointer-events="all"/><path cell-id="113" d="M 247 689 L 260 682.5 L 247 676" fill="none" stroke="#000000" stroke-miterlimit="10" pointer-events="all"/></g><g shape-node=""><path cell-id="114" d="M 36 462 L 23 462 Q 13 462 13 472 L 13 822 Q 13 832 23 832 L 131.5 832 Q 141.5 832 141.5 822 L 141.5 718" fill="none" stroke="#000000" stroke-miterlimit="10" stroke-dasharray="5" pointer-events="stroke"/><path cell-id="114" d="M 29.5 468.5 L 29.5 455.5" fill="none" stroke="#000000" stroke-miterlimit="10" pointer-events="all"/><ellipse cell-id="114" cx="141.5" cy="737.5" rx="5.5" ry="5.5" fill="#ffffff" stroke="#000000" pointer-events="all"/><path cell-id="114" d="M 135 718 L 141.5 731 L 148 718" fill="none" stroke="#000000" stroke-miterlimit="10" pointer-events="all"/></g><g shape-node=""><path cell-id="WLoni_qVG5OEuvx1Uarv-118" d="M 673 304.35 L 653 304.35 Q 643 304.35 635.9 311.39 L 555.76 390.95 Q 548.67 398 538.67 398 L 518.67 398" fill="none" stroke="#000000" stroke-miterlimit="10" stroke-dasharray="5" pointer-events="stroke"/><path cell-id="WLoni_qVG5OEuvx1Uarv-118" d="M 666.5 310.85 L 666.5 297.85" fill="none" stroke="#000000" stroke-miterlimit="10" pointer-events="all"/><ellipse cell-id="WLoni_qVG5OEuvx1Uarv-118" cx="538.17" cy="398" rx="5.5" ry="5.5" fill="#ffffff" stroke="#000000" pointer-events="all"/><path cell-id="WLoni_qVG5OEuvx1Uarv-118" d="M 518.67 404.5 L 531.67 398 L 518.67 391.5" fill="none" stroke="#000000" stroke-miterlimit="10" pointer-events="all"/></g></g><g fill="#787878" font-family="Arial,Helvetica" pointer-events="none" font-size="12px"><text pointer-events="none" x="6" y="15">Visual Paradigm Online Free Edition</text></g><g fill="#787878" font-family="Arial,Helvetica" pointer-events="none" text-anchor="end" font-size="12px"><text pointer-events="none" x="787" y="842">Visual Paradigm Online Free Edition</text></g></svg>